<svg width="63" height="61" viewBox="0 0 63 61" fill="none" xmlns="http://www.w3.org/2000/svg">
<path d="M0 8.93555C0 4.51727 3.58172 0.935547 8 0.935547H63V52.9355C63 57.3538 59.4183 60.9355 55 60.9355H8C3.58172 60.9355 0 57.3538 0 52.9355V8.93555Z" fill="#F3F4F6"/>
<path d="M31.99 20.9355C26.47 20.9355 22 25.4155 22 30.9355C22 36.4555 26.47 40.9355 31.99 40.9355C37.52 40.9355 42 36.4555 42 30.9355C42 25.4155 37.52 20.9355 31.99 20.9355ZM32 38.9355C27.58 38.9355 24 35.3555 24 30.9355C24 26.5155 27.58 22.9355 32 22.9355C36.42 22.9355 40 26.5155 40 30.9355C40 35.3555 36.42 38.9355 32 38.9355ZM35.5 29.9355C36.33 29.9355 37 29.2655 37 28.4355C37 27.6055 36.33 26.9355 35.5 26.9355C34.67 26.9355 34 27.6055 34 28.4355C34 29.2655 34.67 29.9355 35.5 29.9355ZM28.5 29.9355C29.33 29.9355 30 29.2655 30 28.4355C30 27.6055 29.33 26.9355 28.5 26.9355C27.67 26.9355 27 27.6055 27 28.4355C27 29.2655 27.67 29.9355 28.5 29.9355ZM32 36.4355C34.33 36.4355 36.31 34.9755 37.11 32.9355H26.89C27.69 34.9755 29.67 36.4355 32 36.4355Z" fill="#171A1F"/>
</svg>
