<svg width="16" height="17" viewBox="0 0 16 17" fill="none" xmlns="http://www.w3.org/2000/svg">
<g clip-path="url(#clip0_790_96)">
<path d="M7.9987 15.6019C4.3167 15.6019 1.33203 12.6172 1.33203 8.93522C1.33203 5.25322 4.3167 2.26855 7.9987 2.26855C11.6807 2.26855 14.6654 5.25322 14.6654 8.93522C14.6654 12.6172 11.6807 15.6019 7.9987 15.6019ZM4.66536 9.60189C4.66536 10.4859 5.01655 11.3338 5.64168 11.9589C6.2668 12.584 7.11464 12.9352 7.9987 12.9352C8.88275 12.9352 9.7306 12.584 10.3557 11.9589C10.9808 11.3338 11.332 10.4859 11.332 9.60189L9.9987 9.60189C9.9987 10.1323 9.78798 10.641 9.41291 11.0161C9.03784 11.3912 8.52913 11.6019 7.9987 11.6019C7.46827 11.6019 6.95956 11.3912 6.58448 11.0161C6.20941 10.641 5.9987 10.1323 5.9987 9.60189H4.66536ZM5.33203 8.26855C5.59725 8.26855 5.8516 8.1632 6.03914 7.97566C6.22667 7.78813 6.33203 7.53377 6.33203 7.26855C6.33203 7.00334 6.22667 6.74898 6.03914 6.56145C5.8516 6.37391 5.59725 6.26855 5.33203 6.26855C5.06681 6.26855 4.81246 6.37391 4.62492 6.56145C4.43739 6.74898 4.33203 7.00334 4.33203 7.26855C4.33203 7.53377 4.43739 7.78813 4.62492 7.97566C4.81246 8.1632 5.06681 8.26855 5.33203 8.26855ZM10.6654 8.26855C10.9306 8.26855 11.1849 8.1632 11.3725 7.97566C11.56 7.78813 11.6654 7.53377 11.6654 7.26855C11.6654 7.00334 11.56 6.74898 11.3725 6.56145C11.1849 6.37391 10.9306 6.26855 10.6654 6.26855C10.4001 6.26855 10.1458 6.37391 9.95826 6.56145C9.77072 6.74898 9.66536 7.00334 9.66536 7.26855C9.66536 7.53377 9.77072 7.78813 9.95826 7.97566C10.1458 8.1632 10.4001 8.26855 10.6654 8.26855Z" fill="#D2628A"/>
</g>
<defs>
<clipPath id="clip0_790_96">
<rect width="16" height="16" fill="white" transform="translate(0 0.935547)"/>
</clipPath>
</defs>
</svg>
